<svg width="277" height="39" viewBox="0 0 277 39" fill="none" xmlns="http://www.w3.org/2000/svg">
<g clip-path="url(#clip0_2413_277)">
<path d="M19.3342 0.108398C26.6423 0.108398 36.006 4.15262 36.9943 14.9344H30.6762C29.6106 7.8215 24.8153 5.34965 19.3325 5.34965C10.3503 5.34965 6.24077 11.7896 6.24077 19.4283C6.24077 27.1397 10.3503 33.5797 19.3325 33.5797C24.8135 33.5797 29.6088 31.1096 30.6762 23.995H36.9943C36.0043 34.7785 26.6423 38.821 19.3342 38.821C7.07951 38.821 1.25063e-06 30.2101 1.25063e-06 19.4283C-0.00343624 8.71927 7.07951 0.108398 19.3342 0.108398Z" fill="#FEF0F0"/>
<path d="M52.9047 16.8821L67.9764 15.4585C67.5948 8.64488 63.8651 5.27526 57.3201 5.27526C51.8391 5.27526 46.7395 7.67102 46.7395 14.7095H40.6483C40.6483 6.99811 46.5866 0.108398 57.3201 0.108398C67.9007 0.108398 74.2188 6.99811 74.2188 16.9565V32.8307H79.7756V38.072H73.0724C70.1798 38.072 68.5814 36.4996 68.5814 33.7302V31.7013L69.5714 27.8126H67.7478C66.3006 33.5036 62.2667 38.8193 53.1384 38.8193C42.178 38.8193 40.5022 31.632 40.5022 27.7383C40.4953 21.8241 44.0738 17.7799 52.9047 16.8821ZM53.893 33.5797C62.4867 33.5797 67.9764 27.74 67.9764 20.0269L53.9651 21.4488C49.1733 21.8985 46.7464 23.3288 46.7464 26.991C46.7464 31.2584 49.4775 33.5797 53.893 33.5797Z" fill="#FEF0F0"/>
<path d="M88.7562 21.5992V38.072H82.5154V0.857389H88.7562V7.29737L87.7662 11.5648H89.5176C91.0404 4.82553 95.8357 0.108398 104.056 0.108398C112.583 0.108398 118.14 4.976 118.14 15.3097V38.072H111.973V16.1331C111.973 8.34562 108.852 5.34965 102.382 5.34965C94.3902 5.34965 88.7562 11.5648 88.7562 21.5992Z" fill="#FEF0F0"/>
<path d="M152.699 17.4113V0.857422H158.864V38.072H152.699V31.6337L153.687 27.3646H151.934C150.411 34.1039 145.616 38.821 137.395 38.821C128.801 38.821 123.236 33.9551 123.236 23.6214V0.857422H129.478V22.7963C129.478 30.5838 132.522 33.5798 139.069 33.5798C147.065 33.5798 152.699 27.3646 152.699 17.4113Z" fill="#FEF0F0"/>
<path d="M164.793 0.928223H181.91C195.504 0.928223 201.16 7.36651 201.16 18.9429C201.16 30.7053 193.986 38.0718 181.589 38.0718H164.786L164.793 0.928223ZM176.12 10.0294V28.9655H180.778C187.384 28.9655 189.902 25.9932 189.902 18.9362C189.902 12.065 187.384 10.0226 180.525 10.0226L176.12 10.0294Z" fill="#FEF0F0"/>
<path d="M225.84 31.3241H213.19L211.299 38.0718H199.656L211.86 0.928223H227.591L239.794 38.0718H227.662L225.84 31.3241ZM215.457 23.3388H223.636L222.375 18.7637C221.62 15.9774 220.864 13.1843 220.235 10.4673H218.977C218.289 13.1911 217.53 15.9774 216.773 18.7637L215.457 23.3388Z" fill="#FEF0F0"/>
<path d="M238.359 19.3774C238.359 7.11965 245.911 0 257.68 0C269.637 0 277 7.11965 277 19.3774C277 31.6352 270.012 39.0017 257.68 39.0017C245.348 39.0017 238.359 31.6335 238.359 19.3774ZM265.735 19.3149C265.735 13.372 263.532 9.65744 257.68 9.65744C251.827 9.65744 249.624 13.4345 249.624 19.3149C249.624 25.7532 251.827 29.5302 257.616 29.5302C263.532 29.5302 265.735 25.8157 265.735 19.3149Z" fill="#FEF0F0"/>
</g>
<defs>
<clipPath id="clip0_2413_277">
<rect width="277" height="39" fill="white"/>
</clipPath>
</defs>
</svg>
