<?xml version="1.0" encoding="utf-8"?>
<!-- Generator: Adobe Illustrator 23.0.2, SVG Export Plug-In . SVG Version: 6.00 Build 0)  -->
<svg version="1.1" xmlns="http://www.w3.org/2000/svg" xmlns:xlink="http://www.w3.org/1999/xlink" x="0px" y="0px"
	 viewBox="0 0 629.29 629.29" style="enable-background:new 0 0 629.29 629.29;" xml:space="preserve">
<style type="text/css">
	.st0{display:none;fill:#F2F2F2;}
	.st1{display:none;fill:#302F42;}
	.st2{display:none;fill:#F6B6B9;}
	.st3{display:none;fill:#E94A44;}
	.st4{fill:#F2F2F2;}
	.st5{fill:#302F42;}
	.st6{fill:#F6B7BA;}
	.st7{fill:#E94A44;}
</style>
<g id="Camada_1">
	<circle class="st0" cx="315.45" cy="308.97" r="302.48"/>
	<circle class="st1" cx="318.15" cy="200.96" r="120.62"/>
	<circle class="st2" cx="318.2" cy="229.67" r="107.76"/>
	<path class="st3" d="M541.55,507.73C432.51,631.79,244.1,645.41,118.36,538.31l25.94-72.39c11.95-26.2,37.38-43.67,66.13-45.41
		l16.51-1.01l39.36-33.94c0,0,106.04-3.79,104.47-5.6L435,418.59l-0.05-0.27l25.25,1.55c28.75,1.73,54.19,19.2,66.13,45.41
		L541.55,507.73z"/>
	<path class="st1" d="M431.88,191.88c0.76-8.05,1.1-16.12,1.04-24.2c0.44-15.98-2.49-31.87-8.59-46.65
		c-7.51-16.36-20.9-29.29-37.51-36.23c-16.46-6.64-34.86-6.62-51.31,0.04c-14.85-9.38-31.35-16.82-48.73-17.74
		c-17.38-0.92-35.75,5.53-46.46,19.72c-2.39,3.75-5.11,7.28-8.12,10.55c-8.61,7.97-21.69,6.82-33.13,5.19
		c5.13,4.4,10.27,8.8,15.4,13.2c-6.21,1.62-12.43,3.25-18.64,4.87c7.25,4.4,14.5,8.79,21.75,13.19
		c-21.05,12.63-30.61,40.21-28.09,65.25c2.39,23.71,13.84,45.39,27.52,64.66c5.46-11.52,4.28-25.3,4.19-38.28
		c-0.05-4.21,0.21-8.41,0.77-12.58c46.24,11.09,94.56,18.2,143.56,0.59l9.83-24.07c1.38,0.14,2.76,0.28,4.14,0.42l5.7,23.67
		c12.92,5.28,25.86,9.89,38.81,5.04c0.63,3.66,1.01,7.39,1.3,10.97c1.11-4.29,2.08-8.61,2.94-12.95c1.71-0.92,3.35-1.97,4.9-3.13
		C433.47,206.21,433.04,198.99,431.88,191.88z"/>
</g>
<g id="Camada_2">
	<path class="st4" d="M613.83,314.61c0,163.53-132.57,296.1-296.1,296.1s-296.1-132.57-296.1-296.1s132.57-296.1,296.1-296.1
		c162.81-0.72,295.37,130.67,296.1,293.47C613.84,312.86,613.84,313.73,613.83,314.61z"/>
	<path class="st5" d="M438.83,243.76L438.83,243.76l-1.47,2.64c13.04-32.14,1.18-71.74-22.08-95.97
		c-23.26-24.23-55.6-35.31-87.45-39.71c-23.64-3.26-48.18-3.17-70.65,5.49c-32.55,12.54-57.42,41.57-78.18,71.76
		c-9.5,13.81-18.84,29.56-17.89,46.82c0.88,16.02,10.39,29.61,18.17,43.21c7.79,13.59,14.29,30.45,8.7,45.29
		c-3.33,8.84-10.37,15.21-16.08,22.44s-10.41,17.01-7.65,26.08c2.49,7.06,8.51,12.29,15.85,13.78c6.9,1.61,14.07,0.56,21.06-0.5
		l181.51-27.42c42.24-6.38,71.31-45.8,64.93-88.05C446.24,260.55,443.27,251.79,438.83,243.76z"/>
	
		<ellipse transform="matrix(0.7071 -0.7071 0.7071 0.7071 -100.2734 293.2302)" class="st6" cx="303.82" cy="267.66" rx="88.74" ry="88.74"/>
	<path class="st7" d="M540.07,510.11C433.34,631.56,248.9,644.89,125.81,540.05l25.4-70.87c11.7-25.65,36.59-42.75,64.73-44.45
		l16.16-0.99l38.53-33.23c0,0,103.81-3.71,102.27-5.48l62.88,37.82l-0.05-0.26l24.72,1.51c28.14,1.7,53.04,18.8,64.73,44.45
		L540.07,510.11z"/>
	<path class="st5" d="M388,185.29c-2.29-12.12-14.65-17.66-25.24-20.35c-30.72-7.84-62.67-9.59-94.06-5.17
		c-22.88,3.26-46.31,10.46-62.91,28.32c-13.39,15.04-20.97,34.36-21.39,54.49c-0.68,12.04,2.01,24.02,7.77,34.62
		c5.98,10.11,16.16,17.45,26.67,17.19l1.06,3.7c44.56-6.21,85.94-33.93,112.01-75.03c-4.89,17.47-14.63,33.2-28.08,45.37
		c30.08-12.04,56.23-32.19,75.53-58.21C384.62,203.24,389.74,194.51,388,185.29z"/>
</g>
</svg>
